<svg width="32" height="33" viewBox="0 0 32 33" fill="none" xmlns="http://www.w3.org/2000/svg">
<path d="M5.93881 17.4387C6.07816 17.2989 6.24375 17.1879 6.42608 17.1122C6.6084 17.0365 6.80389 16.9975 7.00131 16.9975C7.19873 16.9975 7.3942 17.0365 7.57653 17.1122C7.75886 17.1879 7.92445 17.2989 8.06381 17.4387L14.5001 23.8749L14.5001 5.49995C14.5001 5.10212 14.6581 4.7206 14.9394 4.43929C15.2207 4.15798 15.6022 3.99995 16.0001 3.99995C16.3979 3.99995 16.7794 4.15798 17.0607 4.43929C17.342 4.7206 17.5001 5.10212 17.5001 5.49995L17.5001 23.8749L23.9388 17.4387C24.2206 17.1569 24.6028 16.9986 25.0013 16.9986C25.3998 16.9986 25.782 17.1569 26.0638 17.4387C26.3456 17.7205 26.5039 18.1027 26.5039 18.5012C26.5039 18.8997 26.3456 19.2819 26.0638 19.5637L17.0638 28.5637C16.9244 28.7035 16.7589 28.8145 16.5765 28.8902C16.3942 28.9659 16.1987 29.0049 16.0013 29.0049C15.8039 29.0049 15.6084 28.9659 15.4261 28.8902C15.2437 28.8145 15.0782 28.7035 14.9388 28.5637L5.93881 19.5637C5.79897 19.4243 5.68801 19.2588 5.6123 19.0764C5.53659 18.8941 5.49762 18.6986 5.49762 18.5012C5.49762 18.3038 5.53659 18.1083 5.6123 17.926C5.68801 17.7436 5.79897 17.5781 5.93881 17.4387Z" fill="#102345"/>
</svg>
